<svg width="59" height="59" viewBox="0 0 59 59" fill="none" xmlns="http://www.w3.org/2000/svg">
<path d="M29.5 0.921875C45.2871 0.921875 58.0781 13.7129 58.0781 29.5C58.0781 45.2871 45.2871 58.0781 29.5 58.0781C13.7129 58.0781 0.921875 45.2871 0.921875 29.5C0.921875 13.7129 13.7129 0.921875 29.5 0.921875ZM26.1697 17.4695L34.8699 25.8125H13.8281C12.2955 25.8125 11.0625 27.0455 11.0625 28.5781V30.4219C11.0625 31.9545 12.2955 33.1875 13.8281 33.1875H34.8699L26.1697 41.5305C25.052 42.6021 25.0289 44.3883 26.1236 45.483L27.3912 46.7391C28.4744 47.8223 30.226 47.8223 31.2977 46.7391L46.5893 31.459C47.6725 30.3758 47.6725 28.6242 46.5893 27.5525L31.2977 12.2494C30.2145 11.1662 28.4629 11.1662 27.3912 12.2494L26.1236 13.5055C25.0289 14.6117 25.052 16.3979 26.1697 17.4695Z" fill="white"/>
</svg>
